# xmcd CD database file
#
# Track frame offsets:
#	150
#	19792
#	34399
#	63841
#	89203
#	107376
#	125603
#	149454
#	167141
#	186209
#	210116
#	239160
#	261577
#	276035
#	297195
#	312624
#
# Disc length: 4430 seconds
#
# Revision: 2
# Processed by: cddbd v1.4b41PL1 Copyright (c) Steve Scherf et al.
# Submitted via: Feurio! 1.50.2ß - http://www.feurio.com
#
DISCID=fa114c10
DTITLE=Various Artist - Cross Ouver
DYEAR=1900
DGENRE=
TTITLE0=Radiohead - Karma Police
TTITLE1=Stone Temple Pilots - Interstate Lovesong
TTITLE2=Monster Magnet - Look To Your Orb For The Warning
TTITLE3=Alice In Chains - Heaven Beside You
TTITLE4=Ugly Kid Joe - Cat's In The Cradle
TTITLE5=Red Hot Chilli Peppers - My Friends
TTITLE6=Soundgarden - Black hole sun
TTITLE7=Radiohead - Creep
TTITLE8=The Smashing Pumpkins - To Forgive
TTITLE9=Pearl Jam - Jeremy
TTITLE10=Metallica - The Unforgiven
TTITLE11=Creed - My own Prison
TTITLE12=Silverchair - Suicidal Dream
TTITLE13=Paradise Lost - another day
TTITLE14=Red Hot Chili Peppers - Road Trippin
TTITLE15=HIM - Gone with the sin
EXTD=
EXTT0=
EXTT1=
EXTT2=
EXTT3=
EXTT4=
EXTT5=
EXTT6=
EXTT7=
EXTT8=
EXTT9=
EXTT10=
EXTT11=
EXTT12=
EXTT13=
EXTT14=ripped by sinned soul [aPC]
EXTT15=
PLAYORDER=
